<svg width="360" height="180" viewBox="0 0 360 180" fill="none" xmlns="http://www.w3.org/2000/svg">
<g clip-path="url(#clip0_751_10185)">
<path fill-rule="evenodd" clip-rule="evenodd" d="M200.926 76.7133V82.8847C200.999 83.3627 201.369 83.75 201.885 83.8373C202.697 83.9727 203.803 84.1627 204.098 84.248C204.163 84.2673 204.235 84.288 204.313 84.3107C205.834 84.7493 209.713 85.8673 209.853 91.5267V108.795C209.853 112.234 211.18 115.529 213.615 117.947C215.975 120.331 219.221 121.665 222.54 121.661L222.688 121.661C222.688 121.661 222.688 121.715 225.699 121.661C226.462 121.647 226.906 121.138 226.895 120.286C226.881 119.106 226.913 118.184 226.893 117.187C226.877 116.354 226.893 115.588 226.893 114.896C226.893 114.253 226.377 113.727 225.787 113.703C224.68 113.699 223.131 113.699 221.656 113.699C219.516 113.699 217.672 111.901 217.672 109.684V100.319C217.745 100.297 217.672 91.36 217.672 91.2573C217.466 83.6127 212.394 80.3587 211.463 79.7613C211.394 79.7173 211.348 79.6873 211.328 79.672C211.348 79.6553 211.394 79.6253 211.462 79.58C212.411 78.956 217.672 75.4933 217.672 67.5187V59.154C217.672 58.5167 217.229 58 216.565 58H210.959C210.369 58 209.853 58.5167 209.853 59.154V67.5187C209.853 73.47 205.866 74.6373 204.324 75.088C204.241 75.1127 204.166 75.1347 204.098 75.1553C203.803 75.24 202.697 75.4307 201.885 75.5647C201.295 75.664 200.926 76.148 200.926 76.7133ZM298.959 90.8973V107.193C298.959 107.483 298.845 107.759 298.642 107.964C298.44 108.168 298.165 108.283 297.878 108.283C296.387 108.281 293.715 108.28 292.225 108.279C291.629 108.278 291.146 107.791 291.146 107.19C291.146 100.565 291.146 65.718 291.146 59.0893C291.146 58.488 291.63 58 292.226 58C293.717 58 296.388 58 297.878 58C298.475 58 298.959 58.488 298.959 59.0893C298.959 63.3033 298.959 78.3 298.959 78.3C307.295 70.434 322.646 76.0913 322.646 90.8607V107.189C322.646 107.478 322.532 107.755 322.33 107.959C322.127 108.163 321.853 108.278 321.566 108.278C320.075 108.278 317.398 108.278 315.907 108.278C315.62 108.278 315.346 108.163 315.143 107.959C314.941 107.755 314.827 107.478 314.827 107.189C314.827 103.377 314.827 90.8607 314.827 90.8607C314.827 83.146 307.08 80.7873 302.434 83.88C300.441 85.2067 298.959 87.586 298.959 90.8973ZM263.557 79.7367C260.163 83.084 258.613 87.4967 258.613 91.92C258.613 96.344 260.163 100.756 263.557 104.105C269.237 109.873 278.016 110.641 284.655 106.399C284.727 106.345 284.814 106.288 284.907 106.227C285.1 106.1 285.317 105.958 285.466 105.81C285.835 105.445 286.045 104.769 285.547 104.063C285.1 103.428 284.513 102.636 283.889 101.787C283.353 101.059 282.851 100.38 282.407 99.7587C282.046 99.2547 281.334 99.12 280.818 99.4267C280.67 99.5187 280.547 99.5933 280.401 99.6873C272.95 104.503 265.99 98.1447 265.99 91.92C265.99 85.6953 273.092 79.3727 280.395 84.1633C280.538 84.258 280.67 84.3213 280.818 84.414C281.334 84.7207 282.06 84.574 282.411 84.0807C282.855 83.4593 283.351 82.784 283.887 82.0567C284.449 81.292 284.976 80.58 285.4 79.984C286.108 78.99 285.92 78.2827 284.905 77.6127C284.813 77.552 284.726 77.4953 284.655 77.4433C278.016 73.2 269.237 73.9673 263.557 79.7367ZM231.762 94.7787H250.205C252.418 94.7787 254.188 92.9907 254.188 90.7867C254.188 85.8807 253.376 83.2647 250.573 79.9253C247.696 76.5687 243.122 74.7487 239.581 74.7487C230.729 74.7487 223.942 82.328 223.942 91.922C223.942 103.743 233.089 109.095 240.392 109.095C245.63 109.095 249.688 107.829 253.671 105.31C254.114 104.979 254.335 104.3 254.04 103.765L253.925 103.574C253.12 102.238 252.008 100.393 251.164 99.1227C250.869 98.62 250.205 98.472 249.688 98.7853C247.18 100.281 244.524 101.598 240.541 101.569C236.852 101.543 232.942 99.1847 231.762 94.7787ZM246.147 88.2273C245.483 83.27 242.089 82.3647 239.581 82.3647C236.188 82.3647 233.312 84.896 232.057 88.2273H246.147Z" fill="#3ADF68"/>
<path fill-rule="evenodd" clip-rule="evenodd" d="M54.4858 74.8943C50.9652 74.5229 47.4175 75.2523 44.3286 76.9809C41.2397 78.7096 38.7615 81.3536 37.2345 84.5483C35.7083 87.7443 35.2085 91.3343 35.8034 94.8249C36.3984 98.3169 38.0595 101.537 40.5588 104.045C43.0568 106.554 46.2713 108.226 49.7582 108.832C53.245 109.438 56.8344 108.95 60.0317 107.432C63.2297 105.914 65.8797 103.442 67.6162 100.357C69.354 97.2709 70.093 93.7229 69.7334 90.1989C69.3375 86.2829 67.605 82.6229 64.8274 79.8356C62.0505 77.0476 58.3977 75.3023 54.4858 74.8943ZM53.9305 101.015C52.0367 101.269 50.1125 100.923 48.4262 100.026C46.7393 99.1282 45.3763 97.7256 44.5282 96.0123C43.6801 94.2996 43.3893 92.3643 43.6967 90.4776C44.0047 88.5923 44.8951 86.8496 46.2436 85.4963C47.592 84.1423 49.3312 83.2463 51.2144 82.9323C53.0983 82.6183 55.0338 82.9029 56.7484 83.7469C58.4618 84.5896 59.8684 85.9489 60.7701 87.6343C61.6723 89.3189 62.0233 91.2436 61.7761 93.1396C61.5157 95.1329 60.6061 96.9843 59.1876 98.4083C57.769 99.8316 55.9215 100.748 53.9305 101.015ZM78.8958 75.5723C78.3022 75.5736 77.7152 75.7076 77.1798 75.9643C76.6437 76.2209 76.1718 76.5943 75.7983 77.0569C75.4241 77.5189 75.1577 78.0589 75.0196 78.6369C74.8808 79.2149 74.8715 79.8169 74.9945 80.3983C75.3706 82.2836 77.1296 83.5702 79.0459 83.5702H90.1675L72.8601 106.49C72.7318 106.659 72.6538 106.861 72.634 107.072C72.6135 107.283 72.6532 107.496 72.747 107.686C72.8416 107.876 72.9863 108.037 73.1661 108.149C73.3466 108.261 73.5541 108.321 73.7663 108.322H100.914C102.829 108.322 104.59 107.035 104.966 105.15C105.089 104.568 105.08 103.966 104.941 103.388C104.802 102.81 104.536 102.27 104.163 101.808C103.79 101.346 103.318 100.973 102.782 100.716C102.246 100.458 101.66 100.324 101.066 100.323H87.5155L104.81 77.4216C104.939 77.2503 105.018 77.0469 105.038 76.8336C105.058 76.6203 105.019 76.4056 104.923 76.2143C104.828 76.0216 104.681 75.8603 104.5 75.7469C104.319 75.6336 104.108 75.5729 103.894 75.5723H78.8958ZM187.381 75.6649C186.479 75.8783 185.679 76.3929 185.111 77.1229C184.547 77.8529 184.247 78.7543 184.26 79.6789V92.9956L162.696 75.8243C162.526 75.6896 162.323 75.6056 162.109 75.5823C161.894 75.5589 161.677 75.5956 161.483 75.6903C161.288 75.7843 161.124 75.9309 161.01 76.1143C160.896 76.2983 160.835 76.5096 160.836 76.7256V104.222C160.821 105.147 161.122 106.049 161.689 106.778C162.256 107.508 163.056 108.023 163.954 108.237C164.538 108.366 165.143 108.361 165.722 108.224C166.304 108.088 166.847 107.822 167.314 107.447C167.781 107.072 168.158 106.598 168.414 106.057C168.67 105.518 168.804 104.927 168.804 104.33V90.8969L190.366 108.069C190.54 108.204 190.744 108.287 190.955 108.311C191.173 108.335 191.39 108.297 191.582 108.203C191.774 108.109 191.94 107.962 192.055 107.779C192.17 107.596 192.228 107.384 192.228 107.168V79.5709C192.228 78.9729 192.094 78.3823 191.838 77.8429C191.582 77.3036 191.205 76.8289 190.738 76.4543C190.271 76.0796 189.728 75.8136 189.145 75.6769C188.563 75.5409 187.963 75.5363 187.381 75.6649ZM131.23 82.8056C140.352 82.8056 147.167 87.6289 147.167 91.9429C147.167 96.2576 140.352 101.081 131.23 101.081C122.11 101.081 115.295 96.2576 115.295 91.9429C115.295 87.6289 122.11 82.8056 131.23 82.8056ZM131.23 74.8069C118.028 74.8069 107.326 82.4789 107.326 91.9429C107.326 101.406 118.028 109.079 131.23 109.079C144.433 109.079 155.135 101.406 155.135 91.9429C155.135 82.4789 144.433 74.8069 131.23 74.8069Z" fill="white"/>
</g>
<defs>
<clipPath id="clip0_751_10185">
<rect width="360" height="180" fill="white"/>
</clipPath>
</defs>
</svg>
