<svg width="288" height="64" viewBox="0 0 288 64" fill="none" xmlns="http://www.w3.org/2000/svg">
<path fill-rule="evenodd" clip-rule="evenodd" d="M165.926 18.7133V24.8847C165.999 25.3627 166.369 25.75 166.885 25.8373C167.697 25.9727 168.803 26.1627 169.098 26.248C169.163 26.2673 169.235 26.288 169.313 26.3107C170.834 26.7493 174.713 27.8673 174.853 33.5267V50.7947C174.853 54.234 176.18 57.5293 178.615 59.9467C180.975 62.3313 184.221 63.6653 187.54 63.6613L187.688 63.6607C187.688 63.6607 187.688 63.7153 190.699 63.6607C191.462 63.6467 191.906 63.138 191.895 62.286C191.881 61.106 191.913 60.184 191.893 59.1873C191.877 58.354 191.893 57.588 191.893 56.896C191.893 56.2533 191.377 55.7267 190.787 55.7027C189.68 55.6993 188.131 55.6993 186.656 55.6993C184.516 55.6987 182.672 53.9007 182.672 51.684V42.3193C182.745 42.2967 182.672 33.36 182.672 33.2573C182.466 25.6127 177.394 22.3587 176.463 21.7613C176.394 21.7173 176.348 21.6873 176.328 21.672C176.348 21.6553 176.394 21.6253 176.462 21.58C177.411 20.956 182.672 17.4933 182.672 9.51867V1.154C182.672 0.516668 182.229 0 181.565 0H175.959C175.369 0 174.853 0.516668 174.853 1.154V9.51867C174.853 15.47 170.866 16.6373 169.324 17.088C169.241 17.1127 169.166 17.1347 169.098 17.1553C168.803 17.24 167.697 17.4307 166.885 17.5647C166.295 17.664 165.926 18.148 165.926 18.7133ZM263.959 32.8973V49.1933C263.959 49.4827 263.845 49.7593 263.642 49.964C263.44 50.168 263.165 50.2827 262.878 50.2827C261.387 50.2813 258.715 50.28 257.225 50.2787C256.629 50.278 256.146 49.7907 256.146 49.19C256.146 42.5647 256.146 7.718 256.146 1.08934C256.146 0.488002 256.63 0 257.226 0C258.717 0 261.388 0 262.878 0C263.475 0 263.959 0.488002 263.959 1.08934C263.959 5.30333 263.959 20.3 263.959 20.3C272.295 12.434 287.646 18.0913 287.646 32.8607V49.1887C287.646 49.478 287.532 49.7547 287.33 49.9593C287.127 50.1633 286.853 50.278 286.566 50.278C285.075 50.278 282.398 50.278 280.907 50.278C280.62 50.278 280.346 50.1633 280.143 49.9593C279.941 49.7547 279.827 49.478 279.827 49.1887C279.827 45.3767 279.827 32.8607 279.827 32.8607C279.827 25.146 272.08 22.7873 267.434 25.88C265.441 27.2067 263.959 29.586 263.959 32.8973ZM228.557 21.7367C225.163 25.084 223.613 29.4967 223.613 33.92C223.613 38.344 225.163 42.756 228.557 46.1053C234.237 51.8733 243.016 52.6413 249.655 48.3987C249.727 48.3453 249.814 48.288 249.907 48.2267C250.1 48.1 250.317 47.958 250.466 47.81C250.835 47.4447 251.045 46.7687 250.547 46.0627C250.1 45.428 249.513 44.636 248.889 43.7873C248.353 43.0593 247.851 42.38 247.407 41.7587C247.046 41.2547 246.334 41.12 245.818 41.4267C245.67 41.5187 245.547 41.5933 245.401 41.6873C237.95 46.5033 230.99 40.1447 230.99 33.92C230.99 27.6953 238.092 21.3727 245.395 26.1633C245.538 26.258 245.67 26.3213 245.818 26.414C246.334 26.7207 247.06 26.574 247.411 26.0807C247.855 25.4593 248.351 24.784 248.887 24.0567C249.449 23.292 249.976 22.58 250.4 21.984C251.108 20.99 250.92 20.2827 249.905 19.6127C249.813 19.552 249.726 19.4953 249.655 19.4433C243.016 15.2 234.237 15.9673 228.557 21.7367ZM196.762 36.7787H215.205C217.418 36.7787 219.188 34.9907 219.188 32.7867C219.188 27.8807 218.376 25.2647 215.573 21.9253C212.696 18.5687 208.122 16.7487 204.581 16.7487C195.729 16.7487 188.942 24.328 188.942 33.922C188.942 45.7427 198.089 51.0947 205.392 51.0947C210.63 51.0947 214.688 49.8293 218.671 47.31C219.114 46.9787 219.335 46.3 219.04 45.7653L218.925 45.574C218.12 44.238 217.008 42.3933 216.164 41.1227C215.869 40.62 215.205 40.472 214.688 40.7853C212.18 42.2807 209.524 43.598 205.541 43.5687C201.852 43.5433 197.942 41.1847 196.762 36.7787ZM211.147 30.2273C210.483 25.27 207.089 24.3647 204.581 24.3647C201.188 24.3647 198.312 26.896 197.057 30.2273H211.147Z" fill="#3ADF68"/>
<path fill-rule="evenodd" clip-rule="evenodd" d="M19.4853 16.8943C15.9647 16.5229 12.417 17.2523 9.3281 18.9809C6.23916 20.7096 3.76101 23.3536 2.23406 26.5483C0.707772 29.7443 0.208043 33.3343 0.802958 36.8249C1.39787 40.3169 3.05901 43.5369 5.55831 46.0449C8.0563 48.5543 11.2708 50.2256 14.7577 50.8323C18.2446 51.4383 21.8339 50.9496 25.0312 49.4323C28.2292 47.9142 30.8792 45.4423 32.6157 42.3569C34.3535 39.2709 35.0926 35.7229 34.733 32.1989C34.337 28.2829 32.6045 24.6229 29.8269 21.8356C27.05 19.0476 23.3972 17.3023 19.4853 16.8943ZM18.93 43.0149C17.0362 43.2689 15.112 42.9229 13.4257 42.0256C11.7388 41.1282 10.3758 39.7256 9.52772 38.0123C8.67964 36.2996 8.38879 34.3643 8.69616 32.4776C9.0042 30.5923 9.89459 28.8496 11.2431 27.4963C12.5915 26.1423 14.3307 25.2463 16.2139 24.9323C18.0978 24.6183 20.0333 24.9029 21.7479 25.7469C23.4613 26.5896 24.8679 27.9489 25.7696 29.6343C26.6719 31.3189 27.0229 33.2436 26.7756 35.1396C26.5152 37.1329 25.6056 38.9843 24.1871 40.4083C22.7686 41.8316 20.921 42.7483 18.93 43.0149ZM43.8953 17.5723C43.3017 17.5736 42.7147 17.7076 42.1793 17.9643C41.6432 18.2209 41.1713 18.5943 40.7978 19.0569C40.4237 19.5189 40.1573 20.0589 40.0191 20.6369C39.8803 21.2149 39.871 21.8169 39.994 22.3983C40.3701 24.2836 42.1291 25.5702 44.0454 25.5702H55.167L37.8596 48.4896C37.7313 48.6589 37.6533 48.8609 37.6335 49.0723C37.613 49.2829 37.6527 49.4956 37.7465 49.6863C37.8411 49.8763 37.9858 50.0369 38.1656 50.1489C38.3461 50.2609 38.5536 50.3209 38.7658 50.3216H65.9131C67.8281 50.3216 69.589 49.0349 69.9652 47.1496C70.0881 46.5676 70.0795 45.9663 69.9407 45.3883C69.8019 44.8096 69.5355 44.2703 69.162 43.8076C68.7892 43.3456 68.3172 42.9729 67.7812 42.7156C67.2457 42.4583 66.6594 42.3242 66.0652 42.3229H52.515L69.8092 19.4216C69.9381 19.2503 70.0174 19.0469 70.0372 18.8336C70.0577 18.6203 70.0181 18.4056 69.9229 18.2143C69.8277 18.0216 69.6809 17.8603 69.4991 17.7469C69.318 17.6336 69.1078 17.5729 68.8937 17.5723H43.8953ZM152.38 17.6649C151.478 17.8783 150.679 18.3929 150.11 19.1229C149.547 19.8529 149.247 20.7543 149.259 21.6789V34.9956L127.695 17.8243C127.526 17.6896 127.323 17.6056 127.108 17.5823C126.893 17.5589 126.676 17.5956 126.482 17.6903C126.288 17.7843 126.124 17.9309 126.009 18.1143C125.895 18.2983 125.835 18.5096 125.836 18.7256V46.2223C125.82 47.1469 126.122 48.0489 126.689 48.7783C127.255 49.5083 128.055 50.0229 128.954 50.2369C129.537 50.3656 130.142 50.3609 130.722 50.2243C131.304 50.0876 131.847 49.8223 132.314 49.4469C132.781 49.0723 133.158 48.5976 133.414 48.0569C133.669 47.5176 133.804 46.9269 133.804 46.3296V32.8969L155.366 50.0689C155.539 50.2036 155.743 50.2869 155.955 50.3109C156.172 50.3349 156.389 50.2969 156.582 50.2029C156.773 50.1089 156.939 49.9616 157.055 49.7789C157.17 49.5956 157.227 49.3843 157.227 49.1676V21.5709C157.227 20.9729 157.093 20.3823 156.837 19.8429C156.582 19.3036 156.204 18.8289 155.737 18.4543C155.271 18.0796 154.727 17.8136 154.145 17.6769C153.563 17.5409 152.962 17.5363 152.38 17.6649ZM96.23 24.8056C105.351 24.8056 112.166 29.6289 112.166 33.9429C112.166 38.2576 105.351 43.0809 96.23 43.0809C87.11 43.0809 80.2942 38.2576 80.2942 33.9429C80.2942 29.6289 87.11 24.8056 96.23 24.8056ZM96.23 16.8069C83.0275 16.8069 72.3257 24.4789 72.3257 33.9429C72.3257 43.4063 83.0275 51.0789 96.23 51.0789C109.432 51.0789 120.134 43.4063 120.134 33.9429C120.134 24.4789 109.432 16.8069 96.23 16.8069Z" fill="#032B44"/>
</svg>
